<svg xmlns="http://www.w3.org/2000/svg" width="20" height="20" viewBox="0 0 20 20" fill="none"><g clip-path="url(#clip0_5_8457)"><path d="M5 18.3334V3.33335C5 2.89133 5.17559 2.4674 5.48816 2.15484C5.80072 1.84228 6.22464 1.66669 6.66667 1.66669H13.3333C13.7754 1.66669 14.1993 1.84228 14.5118 2.15484C14.8244 2.4674 15 2.89133 15 3.33335V18.3334H5Z" stroke="#51A2FF" stroke-width="1.66667" stroke-linecap="round" stroke-linejoin="round"></path><path d="M4.99999 10H3.33332C2.8913 10 2.46737 10.1756 2.15481 10.4882C1.84225 10.8007 1.66666 11.2246 1.66666 11.6667V16.6667C1.66666 17.1087 1.84225 17.5326 2.15481 17.8452C2.46737 18.1577 2.8913 18.3333 3.33332 18.3333H4.99999" stroke="#51A2FF" stroke-width="1.66667" stroke-linecap="round" stroke-linejoin="round"></path><path d="M15 7.5H16.6667C17.1087 7.5 17.5326 7.6756 17.8452 7.98816C18.1577 8.30072 18.3333 8.72464 18.3333 9.16667V16.6667C18.3333 17.1087 18.1577 17.5326 17.8452 17.8452C17.5326 18.1577 17.1087 18.3333 16.6667 18.3333H15" stroke="#51A2FF" stroke-width="1.66667" stroke-linecap="round" stroke-linejoin="round"></path><path d="M8.33334 5H11.6667" stroke="#51A2FF" stroke-width="1.66667" stroke-linecap="round" stroke-linejoin="round"></path><path d="M8.33334 8.33331H11.6667" stroke="#51A2FF" stroke-width="1.66667" stroke-linecap="round" stroke-linejoin="round"></path><path d="M8.33334 11.6667H11.6667" stroke="#51A2FF" stroke-width="1.66667" stroke-linecap="round" stroke-linejoin="round"></path><path d="M8.33334 15H11.6667" stroke="#51A2FF" stroke-width="1.66667" stroke-linecap="round" stroke-linejoin="round"></path></g><defs><clipPath id="clip0_5_8457"><rect width="20" height="20" fill="white"></rect></clipPath></defs></svg>