<svg xmlns="http://www.w3.org/2000/svg" width="16" height="16" viewBox="0 0 16 16" fill="none"><path d="M13.3333 8.6667C13.3333 12 11 13.6667 8.22666 14.6334C8.08143 14.6826 7.92368 14.6802 7.77999 14.6267C4.99999 13.6667 2.66666 12 2.66666 8.6667V4.00004C2.66666 3.82322 2.73689 3.65366 2.86192 3.52863C2.98694 3.40361 3.15651 3.33337 3.33332 3.33337C4.66666 3.33337 6.33332 2.53337 7.49332 1.52004C7.63456 1.39937 7.81423 1.33307 7.99999 1.33307C8.18575 1.33307 8.36542 1.39937 8.50666 1.52004C9.67332 2.54004 11.3333 3.33337 12.6667 3.33337C12.8435 3.33337 13.013 3.40361 13.1381 3.52863C13.2631 3.65366 13.3333 3.82322 13.3333 4.00004V8.6667Z" stroke="#00D492" stroke-width="1.33333" stroke-linecap="round" stroke-linejoin="round"></path></svg>