<svg xmlns="http://www.w3.org/2000/svg" width="20" height="20" viewBox="0 0 20 20" fill="none"><path d="M15.8333 2.5H4.16667C3.24619 2.5 2.5 3.24619 2.5 4.16667V15.8333C2.5 16.7538 3.24619 17.5 4.16667 17.5H15.8333C16.7538 17.5 17.5 16.7538 17.5 15.8333V4.16667C17.5 3.24619 16.7538 2.5 15.8333 2.5Z" stroke="#FB64B6" stroke-width="1.66667" stroke-linecap="round" stroke-linejoin="round"></path><path d="M2.5 7.49998C2.5 7.05795 2.67559 6.63403 2.98816 6.32147C3.30072 6.00891 3.72464 5.83331 4.16667 5.83331H15.8333C16.2754 5.83331 16.6993 6.00891 17.0118 6.32147C17.3244 6.63403 17.5 7.05795 17.5 7.49998" stroke="#FB64B6" stroke-width="1.66667" stroke-linecap="round" stroke-linejoin="round"></path><path d="M2.5 9.16669H5C5.66667 9.16669 6.33333 9.41669 6.75 9.91669L7.66667 10.6667C9 12 11.0833 12 12.4167 10.6667L13.3333 9.91669C13.75 9.50002 14.4167 9.16669 15.0833 9.16669H17.5" stroke="#FB64B6" stroke-width="1.66667" stroke-linecap="round" stroke-linejoin="round"></path></svg>