<svg xmlns="http://www.w3.org/2000/svg" width="20" height="20" viewBox="0 0 20 20" fill="none"><path d="M15.8333 2.5H4.16667C3.24619 2.5 2.5 3.24619 2.5 4.16667V15.8333C2.5 16.7538 3.24619 17.5 4.16667 17.5H15.8333C16.7538 17.5 17.5 16.7538 17.5 15.8333V4.16667C17.5 3.24619 16.7538 2.5 15.8333 2.5Z" stroke="#FB64B6" stroke-width="1.66667" stroke-linecap="round" stroke-linejoin="round"></path><path d="M2.5 7.50016C2.5 7.05814 2.67559 6.63421 2.98816 6.32165C3.30072 6.00909 3.72464 5.8335 4.16667 5.8335H15.8333C16.2754 5.8335 16.6993 6.00909 17.0118 6.32165C17.3244 6.63421 17.5 7.05814 17.5 7.50016" stroke="#FB64B6" stroke-width="1.66667" stroke-linecap="round" stroke-linejoin="round"></path><path d="M2.5 9.1665H5C5.66667 9.1665 6.33333 9.4165 6.75 9.9165L7.66667 10.6665C9 11.9998 11.0833 11.9998 12.4167 10.6665L13.3333 9.9165C13.75 9.49984 14.4167 9.1665 15.0833 9.1665H17.5" stroke="#FB64B6" stroke-width="1.66667" stroke-linecap="round" stroke-linejoin="round"></path></svg>