<svg xmlns="http://www.w3.org/2000/svg" width="16" height="16" viewBox="0 0 16 16" fill="none"><path d="M4 6.00002H3C2.55797 6.00002 2.13405 5.82443 1.82149 5.51186C1.50893 5.1993 1.33333 4.77538 1.33333 4.33335C1.33333 3.89133 1.50893 3.4674 1.82149 3.15484C2.13405 2.84228 2.55797 2.66669 3 2.66669H4" stroke="black" stroke-width="1.33333" stroke-linecap="round" stroke-linejoin="round"></path><path d="M12 6.00002H13C13.442 6.00002 13.866 5.82443 14.1785 5.51186C14.4911 5.1993 14.6667 4.77538 14.6667 4.33335C14.6667 3.89133 14.4911 3.4674 14.1785 3.15484C13.866 2.84228 13.442 2.66669 13 2.66669H12" stroke="black" stroke-width="1.33333" stroke-linecap="round" stroke-linejoin="round"></path><path d="M2.66667 14.6667H13.3333" stroke="black" stroke-width="1.33333" stroke-linecap="round" stroke-linejoin="round"></path><path d="M6.66667 9.77332V11.3333C6.66667 11.7 6.35333 11.9866 6.02 12.14C5.23333 12.5 4.66667 13.4933 4.66667 14.6666" stroke="black" stroke-width="1.33333" stroke-linecap="round" stroke-linejoin="round"></path><path d="M9.33333 9.77332V11.3333C9.33333 11.7 9.64667 11.9866 9.98 12.14C10.7667 12.5 11.3333 13.4933 11.3333 14.6666" stroke="black" stroke-width="1.33333" stroke-linecap="round" stroke-linejoin="round"></path><path d="M12 1.33331H4V5.99998C4 7.06085 4.42143 8.07826 5.17157 8.82841C5.92172 9.57855 6.93913 9.99998 8 9.99998C9.06087 9.99998 10.0783 9.57855 10.8284 8.82841C11.5786 8.07826 12 7.06085 12 5.99998V1.33331Z" stroke="black" stroke-width="1.33333" stroke-linecap="round" stroke-linejoin="round"></path></svg>