<svg xmlns="http://www.w3.org/2000/svg" width="32" height="32" viewBox="0 0 32 32" fill="none"><path d="M16 13.3333H5.33332C3.86056 13.3333 2.66666 14.5272 2.66666 15.9999V26.6666C2.66666 28.1393 3.86056 29.3333 5.33332 29.3333H16C17.4727 29.3333 18.6667 28.1393 18.6667 26.6666V15.9999C18.6667 14.5272 17.4727 13.3333 16 13.3333Z" stroke="#FDC700" stroke-width="2.66667" stroke-linecap="round" stroke-linejoin="round"></path><path d="M23.8933 18.6668L28.56 14.0002C29.0547 13.4515 29.3285 12.7389 29.3285 12.0002C29.3285 11.2614 29.0547 10.5488 28.56 10.0002L21.8933 3.44015C21.3447 2.94544 20.6321 2.67163 19.8933 2.67163C19.1546 2.67163 18.442 2.94544 17.8933 3.44015L13.3333 8.00015" stroke="#FDC700" stroke-width="2.66667" stroke-linecap="round" stroke-linejoin="round"></path><path d="M8 24H8.01333" stroke="#FDC700" stroke-width="2.66667" stroke-linecap="round" stroke-linejoin="round"></path><path d="M13.3333 18.6667H13.3467" stroke="#FDC700" stroke-width="2.66667" stroke-linecap="round" stroke-linejoin="round"></path><path d="M20 8H20.0133" stroke="#FDC700" stroke-width="2.66667" stroke-linecap="round" stroke-linejoin="round"></path><path d="M24 12H24.0133" stroke="#FDC700" stroke-width="2.66667" stroke-linecap="round" stroke-linejoin="round"></path></svg>