<svg xmlns="http://www.w3.org/2000/svg" width="32" height="32" viewBox="0 0 32 32" fill="none"><path d="M6.66669 12.0001C4.66669 14.0001 2.66669 16.2667 2.66669 19.3334C2.66669 20.2964 2.85637 21.25 3.2249 22.1398C3.59344 23.0295 4.13361 23.8379 4.81457 24.5189C6.18984 25.8941 8.0551 26.6667 10 26.6667C12.4 26.6667 14 26.0001 16 24.0001C18 26.0001 19.6 26.6667 22 26.6667C22.963 26.6667 23.9166 26.4771 24.8064 26.1085C25.6961 25.74 26.5045 25.1998 27.1855 24.5189C27.8664 23.8379 28.4066 23.0295 28.7751 22.1398C29.1437 21.25 29.3334 20.2964 29.3334 19.3334C29.3334 16.2667 27.3334 14.0001 25.3334 12.0001L16 2.66675L6.66669 12.0001Z" stroke="#C27AFF" stroke-width="2.66667" stroke-linecap="round" stroke-linejoin="round"></path><path d="M16 24V29.3333" stroke="#C27AFF" stroke-width="2.66667" stroke-linecap="round" stroke-linejoin="round"></path></svg>