<svg xmlns="http://www.w3.org/2000/svg" width="16" height="16" viewBox="0 0 16 16" fill="none"><g clip-path="url(#clip0_5_7560)"><path d="M3.99998 5.99996H2.99998C2.55795 5.99996 2.13403 5.82436 1.82147 5.5118C1.50891 5.19924 1.33331 4.77532 1.33331 4.33329C1.33331 3.89127 1.50891 3.46734 1.82147 3.15478C2.13403 2.84222 2.55795 2.66663 2.99998 2.66663H3.99998" stroke="white" stroke-width="1.33333" stroke-linecap="round" stroke-linejoin="round"></path><path d="M12 5.99996H13C13.442 5.99996 13.866 5.82436 14.1785 5.5118C14.4911 5.19924 14.6667 4.77532 14.6667 4.33329C14.6667 3.89127 14.4911 3.46734 14.1785 3.15478C13.866 2.84222 13.442 2.66663 13 2.66663H12" stroke="white" stroke-width="1.33333" stroke-linecap="round" stroke-linejoin="round"></path><path d="M2.66669 14.6666H13.3334" stroke="white" stroke-width="1.33333" stroke-linecap="round" stroke-linejoin="round"></path><path d="M6.66669 9.77332V11.3333C6.66669 11.7 6.35335 11.9866 6.02002 12.14C5.23335 12.5 4.66669 13.4933 4.66669 14.6666" stroke="white" stroke-width="1.33333" stroke-linecap="round" stroke-linejoin="round"></path><path d="M9.33331 9.77332V11.3333C9.33331 11.7 9.64665 11.9866 9.97998 12.14C10.7666 12.5 11.3333 13.4933 11.3333 14.6666" stroke="white" stroke-width="1.33333" stroke-linecap="round" stroke-linejoin="round"></path><path d="M12 1.33337H4V6.00004C4 7.06091 4.42143 8.07832 5.17157 8.82847C5.92172 9.57861 6.93913 10 8 10C9.06087 10 10.0783 9.57861 10.8284 8.82847C11.5786 8.07832 12 7.06091 12 6.00004V1.33337Z" stroke="white" stroke-width="1.33333" stroke-linecap="round" stroke-linejoin="round"></path></g><defs><clipPath id="clip0_5_7560"><rect width="16" height="16" fill="white"></rect></clipPath></defs></svg>