<svg xmlns="http://www.w3.org/2000/svg" width="16" height="16" viewBox="0 0 16 16" fill="none"><path d="M13.3333 5.33325H2.66667C2.29848 5.33325 2 5.63173 2 5.99992V7.33325C2 7.70144 2.29848 7.99992 2.66667 7.99992H13.3333C13.7015 7.99992 14 7.70144 14 7.33325V5.99992C14 5.63173 13.7015 5.33325 13.3333 5.33325Z" stroke="white" stroke-width="1.33333" stroke-linecap="round" stroke-linejoin="round"></path><path d="M8 5.33325V13.9999" stroke="white" stroke-width="1.33333" stroke-linecap="round" stroke-linejoin="round"></path><path d="M12.6666 8V12.6667C12.6666 13.0203 12.5262 13.3594 12.2761 13.6095C12.0261 13.8595 11.6869 14 11.3333 14H4.66665C4.31302 14 3.97389 13.8595 3.72384 13.6095C3.47379 13.3594 3.33331 13.0203 3.33331 12.6667V8" stroke="white" stroke-width="1.33333" stroke-linecap="round" stroke-linejoin="round"></path><path d="M4.99998 5.33338C4.55795 5.33338 4.13403 5.15779 3.82147 4.84523C3.50891 4.53266 3.33331 4.10874 3.33331 3.66671C3.33331 3.22469 3.50891 2.80076 3.82147 2.4882C4.13403 2.17564 4.55795 2.00005 4.99998 2.00005C5.6431 1.98884 6.27333 2.30089 6.80847 2.89549C7.34361 3.49009 7.75883 4.33965 7.99998 5.33338C8.24113 4.33965 8.65635 3.49009 9.19149 2.89549C9.72663 2.30089 10.3569 1.98884 11 2.00005C11.442 2.00005 11.8659 2.17564 12.1785 2.4882C12.4911 2.80076 12.6666 3.22469 12.6666 3.66671C12.6666 4.10874 12.4911 4.53266 12.1785 4.84523C11.8659 5.15779 11.442 5.33338 11 5.33338" stroke="white" stroke-width="1.33333" stroke-linecap="round" stroke-linejoin="round"></path></svg>