<svg xmlns="http://www.w3.org/2000/svg" width="15" height="15" viewBox="0 0 15 15" fill="none"><path d="M7.01787 0.863252C7.04708 0.804226 7.09221 0.754541 7.14817 0.719802C7.20412 0.685064 7.26867 0.666656 7.33453 0.666656C7.40039 0.666656 7.46494 0.685064 7.5209 0.719802C7.57685 0.754541 7.62198 0.804226 7.6512 0.863252L9.1912 3.98259C9.29265 4.1879 9.44241 4.36552 9.62762 4.50022C9.81282 4.63492 10.028 4.72266 10.2545 4.75592L13.6985 5.25992C13.7638 5.26937 13.8251 5.2969 13.8755 5.33939C13.926 5.38187 13.9635 5.43762 13.9839 5.50032C14.0043 5.56303 14.0067 5.63019 13.9909 5.69421C13.9751 5.75823 13.9417 5.81655 13.8945 5.86259L11.4039 8.28792C11.2396 8.44799 11.1167 8.64558 11.0458 8.86367C10.9748 9.08177 10.9579 9.31385 10.9965 9.53992L11.5845 12.9666C11.5961 13.0318 11.589 13.099 11.5642 13.1604C11.5394 13.2218 11.4978 13.275 11.4442 13.3139C11.3906 13.3528 11.3272 13.3759 11.2611 13.3805C11.195 13.3851 11.129 13.371 11.0705 13.3399L7.99187 11.7213C7.78901 11.6147 7.56332 11.5591 7.3342 11.5591C7.10508 11.5591 6.87939 11.6147 6.67653 11.7213L3.59853 13.3399C3.54009 13.3709 3.47413 13.3848 3.40817 13.3801C3.3422 13.3754 3.27888 13.3523 3.2254 13.3134C3.17192 13.2745 3.13042 13.2214 3.10564 13.1601C3.08085 13.0988 3.07377 13.0317 3.0852 12.9666L3.67253 9.54059C3.71133 9.31441 3.69452 9.08219 3.62356 8.86395C3.5526 8.64572 3.42961 8.44802 3.2652 8.28792L0.774534 5.86325C0.72693 5.81727 0.693197 5.75885 0.677176 5.69464C0.661156 5.63042 0.663492 5.563 0.68392 5.50005C0.704348 5.4371 0.742046 5.38115 0.792719 5.33857C0.843392 5.296 0.905003 5.26852 0.970534 5.25925L4.41387 4.75592C4.64071 4.72292 4.85613 4.63529 5.04159 4.50058C5.22705 4.36586 5.377 4.1881 5.47853 3.98259L7.01787 0.863252Z" fill="#00D492" stroke="#00D492" stroke-width="1.33333" stroke-linecap="round" stroke-linejoin="round"></path></svg>