<svg xmlns="http://www.w3.org/2000/svg" width="12" height="13" viewBox="0 0 12 13" fill="none"><path d="M2.52802 12.32C2.52802 12.1814 2.50135 12.112 2.44802 12.112L2.08002 12.288C2.08002 12.2134 2.03735 12.16 1.95202 12.128L1.82402 12.112C1.73869 12.112 1.63202 12.1494 1.50402 12.224C1.48269 12.1707 1.45602 12.1174 1.42402 12.064C1.39202 12.0107 1.36535 11.9627 1.34402 11.92C1.20535 11.6534 1.06669 11.36 0.928021 11.04C0.800021 10.7094 0.677354 10.3947 0.560021 10.096C0.453354 9.79736 0.368021 9.56269 0.304021 9.39203C0.261354 9.25336 0.213354 9.04536 0.160021 8.76803C0.106688 8.49069 0.0533544 8.13869 2.10404e-05 7.71203C0.117354 7.78669 0.208021 7.82403 0.272021 7.82403C0.346688 7.82403 0.416021 7.71203 0.480021 7.48803C0.512021 7.53069 0.570688 7.55203 0.656021 7.55203C0.720021 7.55203 0.768021 7.53069 0.800021 7.48803L1.05602 7.10403L1.34402 7.20003H1.36002C1.38135 7.20003 1.40269 7.18936 1.42402 7.16803C1.44535 7.14669 1.47735 7.12536 1.52002 7.10403C1.60535 7.05069 1.66935 7.02403 1.71202 7.02403L1.76002 7.04003C2.02669 7.16803 2.19735 7.40269 2.27202 7.74403C2.46402 8.55469 2.65602 8.96003 2.84802 8.96003C3.04002 8.96003 3.26402 8.75736 3.52002 8.35203C3.64802 8.14936 3.77602 7.91469 3.90402 7.64803C4.04269 7.38136 4.18135 7.08269 4.32002 6.75203C4.34135 6.88003 4.36269 6.94403 4.38402 6.94403C4.43735 6.94403 4.52802 6.81069 4.65602 6.54403C4.79469 6.27736 5.01335 5.90936 5.31202 5.44003C5.48269 5.15203 5.69602 4.82669 5.95202 4.46403C6.21869 4.10136 6.50135 3.72803 6.80002 3.34403C7.09869 2.96003 7.38669 2.59736 7.66402 2.25603C7.95202 1.91469 8.20802 1.62136 8.43202 1.37603C8.65602 1.13069 8.82135 0.970694 8.92802 0.896028C9.33335 0.618694 9.65335 0.352027 9.88802 0.0960274C9.87735 0.170694 9.86135 0.240027 9.84002 0.304028C9.82935 0.357361 9.82402 0.394694 9.82402 0.416027C9.82402 0.458694 9.84535 0.480027 9.88802 0.480027L10.336 0.256027V0.320027C10.336 0.405361 10.3574 0.448028 10.4 0.448028C10.432 0.448028 10.496 0.400028 10.592 0.304028C10.688 0.208028 10.7414 0.138694 10.752 0.0960274L10.72 0.320027L11.264 2.76566e-05L11.136 0.288028C11.3067 0.170694 11.4294 0.112027 11.504 0.112027C11.5467 0.112027 11.5787 0.138694 11.6 0.192027C11.6214 0.234694 11.632 0.277361 11.632 0.320027C11.632 0.384027 11.6054 0.458694 11.552 0.544027C11.4987 0.629361 11.4294 0.730694 11.344 0.848027C11.28 0.933361 11.1734 1.06136 11.024 1.23203C10.8854 1.39203 10.672 1.63203 10.384 1.95203C10.096 2.26136 9.71202 2.69336 9.23202 3.24803C9.10402 3.38669 8.90669 3.63203 8.64002 3.98403C8.37335 4.32536 8.06936 4.72536 7.72802 5.18403C7.39735 5.63203 7.06669 6.08536 6.73602 6.54403C6.40535 7.00269 6.11202 7.41869 5.85602 7.79203C5.60002 8.15469 5.41869 8.42669 5.31202 8.60803L4.32002 10.288C4.10669 10.6507 3.93069 10.9494 3.79202 11.184C3.65335 11.408 3.54669 11.5627 3.47202 11.648C3.31202 11.84 3.13602 12.0107 2.94402 12.16L2.80002 12.08L2.67202 12.16L2.52802 12.32Z" fill="#00D492"></path></svg>